<?xml version="1.0" encoding="utf-8"?>
<!-- Generator: Adobe Illustrator 22.1.0, SVG Export Plug-In . SVG Version: 6.00 Build 0)  -->
<svg version="1.1" id="Layer_1" xmlns="http://www.w3.org/2000/svg" xmlns:xlink="http://www.w3.org/1999/xlink" x="0px" y="0px"
	 viewBox="0 0 114 81" style="enable-background:new 0 0 114 81;" xml:space="preserve">
<style type="text/css">
	.st0{fill:#06326E;}
	.st1{fill-rule:evenodd;clip-rule:evenodd;fill:#FAB31E;}
	.st2{fill-rule:evenodd;clip-rule:evenodd;fill:#E40520;}
	.st3{fill-rule:evenodd;clip-rule:evenodd;fill:#FFFFFF;}
	.st4{fill-rule:evenodd;clip-rule:evenodd;fill:#06326E;}
	.st5{fill:#FFFFFF;stroke:#878787;stroke-miterlimit:10;}
	.st6{fill:#005CA8;}
	.st7{fill:#F6A723;}
</style>
<g>
	<rect x="20.5" y="18.6" class="st0" width="93.2" height="58.2"/>
	<g>
		<path class="st1" d="M67.2,61.2c3.2,2.9,7.5,4.7,12.2,4.7c10.1,0,18.2-8.2,18.2-18.2c0-10-8.2-18.2-18.2-18.2
			c-4.7,0-9,1.8-12.2,4.7c-3.7,3.4-6,8.2-6,13.5S63.5,57.9,67.2,61.2L67.2,61.2z"/>
		<path class="st1" d="M95.2,57.8c0-0.3,0.3-0.6,0.6-0.6c0.3,0,0.6,0.3,0.6,0.6s-0.3,0.6-0.6,0.6C95.5,58.4,95.2,58.2,95.2,57.8
			L95.2,57.8z M95.8,58.3c0.2,0,0.4-0.2,0.4-0.5s-0.2-0.4-0.4-0.4c-0.3,0-0.5,0.2-0.5,0.4S95.6,58.3,95.8,58.3L95.8,58.3z
			 M95.7,58.1h-0.1v-0.5h0.2c0,0,0.1,0,0.1,0c0,0,0.1,0.1,0.1,0.1c0,0.1,0,0.1-0.1,0.1l0.1,0.3h-0.1l-0.1-0.2h-0.1V58.1L95.7,58.1z
			 M95.7,57.8L95.7,57.8c0.1,0,0.1,0,0.1,0c0,0,0,0,0-0.1c0,0,0,0,0,0c0,0,0,0-0.1,0h-0.1V57.8L95.7,57.8z"/>
		<path class="st2" d="M73.1,45.8c-0.1-0.6-0.2-1.3-0.3-1.9H61.6c0.1-0.6,0.3-1.3,0.5-1.9h10.1c-0.2-0.6-0.5-1.3-0.8-1.9h-8.6
			c0.3-0.6,0.7-1.3,1.1-1.9h6.4c-0.4-0.7-0.9-1.3-1.4-1.9h-3.6c0.5-0.7,1.2-1.3,1.8-1.9c-3.2-2.9-7.5-4.7-12.2-4.7
			c-10.1,0-18.2,8.2-18.2,18.2c0,10.1,8.2,18.2,18.2,18.2c4.7,0,9-1.8,12.2-4.7l0,0c0.6-0.6,1.3-1.3,1.9-1.9h-3.7
			c-0.5-0.6-1-1.3-1.4-1.9h6.4c0.4-0.6,0.8-1.3,1.1-1.9h-8.6c-0.3-0.6-0.5-1.3-0.8-1.9h10.1c0.2-0.6,0.4-1.3,0.5-1.9
			c0.1-0.6,0.3-1.3,0.3-1.9c0.1-0.6,0.1-1.3,0.1-1.9C73.2,47,73.2,46.4,73.1,45.8L73.1,45.8z"/>
		<path class="st3" d="M95.2,51.9c0-0.3,0.3-0.6,0.6-0.6c0.3,0,0.6,0.3,0.6,0.6c0,0.3-0.3,0.6-0.6,0.6
			C95.5,52.5,95.2,52.2,95.2,51.9L95.2,51.9z M95.8,52.4c0.2,0,0.4-0.2,0.4-0.5c0-0.3-0.2-0.4-0.4-0.4c-0.3,0-0.5,0.2-0.5,0.4
			C95.4,52.1,95.6,52.4,95.8,52.4L95.8,52.4z M95.7,52.2h-0.1v-0.5h0.2c0,0,0.1,0,0.1,0c0,0,0.1,0.1,0.1,0.1c0,0.1,0,0.1-0.1,0.1
			l0.1,0.3h-0.1L95.8,52h-0.1V52.2L95.7,52.2z M95.7,51.9L95.7,51.9c0.1,0,0.1,0,0.1,0c0,0,0,0,0-0.1c0,0,0,0,0,0c0,0,0,0-0.1,0
			h-0.1V51.9L95.7,51.9z"/>
		<path class="st4" d="M61,52.9c-0.6,0.2-1,0.3-1.5,0.3c-0.9,0-1.5-0.6-1.5-1.6c0-0.2,0-0.4,0.1-0.7l0.1-0.7l0.1-0.6l0.9-5.1H61
			l-0.2,1.1H62l-0.3,1.9h-1.2L60,50.5c0,0.1,0,0.2,0,0.3c0,0.4,0.2,0.6,0.7,0.6c0.3,0,0.4,0,0.6-0.1L61,52.9L61,52.9z"/>
		<path class="st4" d="M67.1,52.9c-0.7,0.2-1.4,0.3-2,0.3c-2.1,0-3.4-1.1-3.4-3.4c0-2.6,1.5-4.5,3.5-4.5c1.6,0,2.6,1.1,2.6,2.8
			c0,0.5-0.1,1.1-0.3,1.9h-3.9c0,0.1,0,0.1,0,0.2c0,0.9,0.6,1.3,1.7,1.3c0.7,0,1.4-0.1,2.1-0.5L67.1,52.9L67.1,52.9z M65.9,48.4
			c0-0.1,0-0.3,0-0.4c0-0.6-0.4-1-0.9-1c-0.6,0-1.1,0.5-1.3,1.3H65.9L65.9,48.4z"/>
		<polygon class="st4" points="45.9,53 43.9,53 45.1,45.9 42.5,53 41.2,53 41,46 39.8,53 37.9,53 39.4,43.8 42.3,43.8 42.4,49.5 
			44.3,43.8 47.4,43.8 45.9,53 		"/>
		<path class="st4" d="M50.6,49.7c-0.2,0-0.3,0-0.4,0c-1.1,0-1.7,0.4-1.7,1.1c0,0.5,0.3,0.8,0.7,0.8C50.2,51.6,50.6,50.8,50.6,49.7
			L50.6,49.7z M52.2,53h-1.7l0-0.8c-0.4,0.6-1,0.9-2.1,0.9c-1,0-1.8-0.9-1.8-2.1c0-0.4,0.1-0.7,0.1-1c0.3-1.2,1.5-1.9,3.3-1.9
			c0.2,0,0.6,0,0.9,0c0.1-0.3,0.1-0.4,0.1-0.5c0-0.5-0.4-0.6-1.3-0.6c-0.6,0-1.2,0.1-1.6,0.2l-0.3,0.1h-0.1l0.3-1.7
			c0.9-0.3,1.6-0.4,2.3-0.4c1.7,0,2.6,0.8,2.6,2.2c0,0.4,0,0.6-0.1,1.5l-0.4,2.7l-0.1,0.5l-0.1,0.4v0.3L52.2,53L52.2,53z"/>
		<path class="st4" d="M76.6,45.6c0.5,0,1,0.1,1.8,0.5l0.3-2c-0.2-0.1-0.2-0.1-0.5-0.2l-0.8-0.2c-0.3-0.1-0.5-0.1-0.9-0.1
			c-1,0-1.5,0-2.1,0.4c-0.3,0.2-0.7,0.5-1.2,1L73,44.9l-2,1.4l0.1-0.8h-2.1L67.8,53h2l0.7-4c0,0,0.3-0.6,0.4-0.8
			c0.4-0.5,0.7-0.5,1.1-0.5c0.1,0,0.1,0,0.1,0c0,0.4-0.1,0.9-0.1,1.4c0,2.5,1.4,4,3.5,4c0.5,0,1-0.1,1.7-0.3l0.4-2.1
			c-0.6,0.3-1.2,0.5-1.7,0.5c-1.1,0-1.8-0.8-1.8-2.3C74.1,47,75.1,45.6,76.6,45.6L76.6,45.6z"/>
		<path class="st4" d="M93.3,43.8l-0.4,2.6c-0.5-0.7-1-1-1.8-1c-1,0-2,0.6-2.6,1.7l0,0l-1.3-0.8l0.1-0.8h-2.1L84,53h2l0.6-4
			c0,0,0.5-0.6,0.6-0.8c0.3-0.4,0.6-0.5,0.9-0.5c-0.2,0.6-0.4,1.4-0.4,2.2c0,1.9,1,3.1,2.4,3.1c0.7,0,1.3-0.3,1.8-0.9L92,53h1.9
			l1.5-9.3H93.3L93.3,43.8z M90.9,51.3c-0.7,0-1-0.5-1-1.5c0-1.5,0.6-2.5,1.5-2.5c0.7,0,1,0.5,1,1.5C92.5,50.2,91.9,51.3,90.9,51.3
			L90.9,51.3z"/>
		<path class="st4" d="M81.8,49.7c-0.2,0-0.3,0-0.4,0c-1.1,0-1.7,0.4-1.7,1.1c0,0.5,0.3,0.8,0.7,0.8C81.4,51.6,81.8,50.8,81.8,49.7
			L81.8,49.7z M83.4,53h-1.7l0-0.8c-0.4,0.6-1,0.9-2.1,0.9c-1,0-1.8-0.8-1.8-2.1c0-1.8,1.4-2.9,3.5-2.9c0.2,0,0.6,0,0.9,0
			c0.1-0.3,0.1-0.4,0.1-0.5c0-0.5-0.4-0.6-1.3-0.6c-0.6,0-1.2,0.1-1.6,0.2L79,47.4h-0.1l0.3-1.7c0.9-0.3,1.6-0.4,2.3-0.4
			c1.7,0,2.6,0.8,2.6,2.2c0,0.4,0,0.6-0.1,1.5l-0.4,2.7l-0.1,0.5l-0.1,0.4l0,0.3V53L83.4,53z"/>
		<path class="st4" d="M56.3,47.1c0.4,0,0.9,0,1.5,0.1l0.3-1.8c-0.6-0.1-1.3-0.1-1.8-0.1c-2.2,0-2.9,1.2-2.9,2.6
			c0,0.9,0.4,1.6,1.5,2c0.8,0.4,1,0.5,1,0.8c0,0.5-0.4,0.8-1.2,0.8c-0.6,0-1.1-0.1-1.8-0.3l-0.2,1.7h0L53,53c0.1,0,0.3,0.1,0.5,0.1
			c0.5,0.1,0.9,0.1,1.1,0.1c2.2,0,3.1-0.8,3.1-2.5c0-1-0.5-1.6-1.5-2.1c-0.8-0.4-0.9-0.4-0.9-0.8C55.3,47.4,55.7,47.1,56.3,47.1
			L56.3,47.1z"/>
		<path class="st3" d="M79.2,43.5l-0.3,2c-0.7-0.4-1.2-0.5-1.8-0.5c-1.5,0-2.5,1.4-2.5,3.5c0,1.4,0.7,2.3,1.9,2.3
			c0.5,0,1-0.1,1.7-0.5l-0.4,2.1c-0.7,0.2-1.2,0.3-1.8,0.3c-2.1,0-3.4-1.5-3.4-4c0-3.3,1.8-5.6,4.4-5.6c0.4,0,0.6,0,0.9,0.1l0.8,0.2
			C79,43.4,79.1,43.4,79.2,43.5L79.2,43.5z"/>
		<path class="st3" d="M72.9,44.9c-0.1,0-0.1,0-0.2,0c-0.6,0-1,0.3-1.6,1.2l0.2-1.1h-1.8l-1.2,7.5h2c0.7-4.6,0.9-5.4,1.9-5.4
			c0,0,0,0,0.1,0C72.4,46.2,72.6,45.5,72.9,44.9L72.9,44.9L72.9,44.9z"/>
		<path class="st3" d="M61.5,52.4c-0.5,0.2-1,0.3-1.4,0.3c-1,0-1.6-0.6-1.6-1.6c0-0.2,0-0.4,0.1-0.7l0.1-0.8l0.1-0.6l0.9-5.1h2
			l-0.2,1.1h1l-0.3,1.9h-1l-0.5,3.1c0,0.1,0,0.3,0,0.3c0,0.4,0.2,0.6,0.7,0.6c0.3,0,0.4,0,0.5-0.1L61.5,52.4L61.5,52.4z"/>
		<path class="st3" d="M53.9,47.3c0,0.9,0.5,1.6,1.5,2.1c0.8,0.4,0.9,0.5,0.9,0.9c0,0.5-0.4,0.7-1.1,0.7c-0.6,0-1.1-0.1-1.8-0.3
			l-0.3,1.8h0.1l0.4,0.1c0.1,0,0.3,0.1,0.5,0.1c0.5,0,0.9,0.1,1.1,0.1c2.1,0,3-0.8,3-2.5c0-1-0.4-1.6-1.4-2.1
			c-0.8-0.4-0.9-0.5-0.9-0.8c0-0.4,0.3-0.6,1-0.6c0.4,0,0.9,0.1,1.4,0.1l0.3-1.8c-0.5-0.1-1.3-0.1-1.8-0.1
			C54.6,44.8,53.9,45.9,53.9,47.3L53.9,47.3z"/>
		<path class="st3" d="M94.4,52.5h-1.9l0.1-0.8c-0.5,0.6-1.1,0.8-1.8,0.8c-1.4,0-2.4-1.2-2.4-3.1c0-2.5,1.5-4.6,3.2-4.6
			c0.8,0,1.4,0.3,1.9,1l0.4-2.6h2L94.4,52.5L94.4,52.5z M91.4,50.7c0.9,0,1.6-1,1.6-2.5c0-0.9-0.4-1.5-1-1.5c-0.9,0-1.5,1-1.5,2.5
			C90.4,50.2,90.7,50.7,91.4,50.7L91.4,50.7z"/>
		<path class="st3" d="M67.5,52.3c-0.7,0.2-1.3,0.3-2,0.3c-2.2,0-3.4-1.2-3.4-3.4c0-2.6,1.5-4.5,3.5-4.5c1.6,0,2.6,1.1,2.6,2.8
			c0,0.5-0.1,1.1-0.2,1.9h-3.9c0,0.1,0,0.1,0,0.2c0,0.9,0.6,1.3,1.8,1.3c0.7,0,1.3-0.1,2-0.5L67.5,52.3L67.5,52.3z M66.4,47.8
			c0-0.1,0-0.3,0-0.4c0-0.6-0.3-1-0.9-1s-1.1,0.5-1.3,1.4H66.4L66.4,47.8z"/>
		<polygon class="st3" points="46.4,52.5 44.4,52.5 45.6,45.4 43,52.5 41.7,52.5 41.5,45.4 40.3,52.5 38.5,52.5 40,43.2 42.8,43.2 
			42.9,48.9 44.8,43.2 47.9,43.2 46.4,52.5 		"/>
		<path class="st3" d="M51.3,49.1c-0.2,0-0.3,0-0.5,0c-1.1,0-1.7,0.4-1.7,1.1c0,0.5,0.3,0.8,0.7,0.8C50.7,51,51.2,50.2,51.3,49.1
			L51.3,49.1z M52.7,52.5h-1.6l0-0.8c-0.5,0.6-1.1,0.9-2.1,0.9c-1.1,0-1.8-0.8-1.8-2c0-1.8,1.3-2.9,3.5-2.9c0.2,0,0.5,0,0.8,0
			c0.1-0.2,0.1-0.3,0.1-0.5c0-0.5-0.3-0.7-1.3-0.7c-0.6,0-1.2,0.1-1.6,0.2l-0.3,0.1l-0.2,0l0.3-1.7c1-0.3,1.6-0.4,2.4-0.4
			c1.7,0,2.6,0.8,2.6,2.2c0,0.4,0,0.7-0.2,1.5l-0.4,2.7l-0.1,0.5l0,0.4l0,0.3L52.7,52.5L52.7,52.5z"/>
		<path class="st3" d="M82.4,49.1c-0.2,0-0.3,0-0.5,0c-1.1,0-1.7,0.4-1.7,1.1c0,0.5,0.3,0.8,0.7,0.8C81.8,51,82.4,50.2,82.4,49.1
			L82.4,49.1z M83.9,52.5h-1.6l0-0.8c-0.5,0.6-1.2,0.9-2.1,0.9c-1.1,0-1.8-0.8-1.8-2c0-1.8,1.3-2.9,3.5-2.9c0.2,0,0.5,0,0.8,0
			c0.1-0.2,0.1-0.3,0.1-0.5c0-0.5-0.3-0.7-1.3-0.7c-0.6,0-1.2,0.1-1.6,0.2l-0.3,0.1l-0.2,0l0.3-1.7c1-0.3,1.6-0.4,2.4-0.4
			c1.7,0,2.6,0.8,2.6,2.2c0,0.4,0,0.7-0.2,1.5l-0.4,2.7L84,51.6L83.9,52l0,0.3V52.5L83.9,52.5z"/>
		<path class="st3" d="M89.2,44.9c0,0-0.1,0-0.2,0c-0.6,0-1,0.3-1.6,1.2l0.2-1.1h-1.8l-1.2,7.5h2c0.7-4.6,0.9-5.4,1.8-5.4
			c0.1,0,0.1,0,0.1,0C88.7,46.2,88.9,45.5,89.2,44.9L89.2,44.9L89.2,44.9z"/>
	</g>
</g>
<g>
	<rect x="1.1" y="1.2" class="st5" width="93.2" height="58.2"/>
	<g>
		<g>
			<polygon class="st6" points="43.3,40.6 37.9,40.6 41.3,20 46.7,20 			"/>
			<path class="st6" d="M33.4,20l-5.1,14.2l-0.6-3.1l0,0l-1.8-9.3c0,0-0.2-1.9-2.6-1.9h-8.5l-0.1,0.3c0,0,2.6,0.5,5.6,2.4L25,40.6
				h5.6L39.2,20H33.4z"/>
			<path class="st6" d="M75.7,40.6h4.9L76.3,20H72c-2,0-2.5,1.5-2.5,1.5l-8,19.1h5.6l1.1-3.1h6.8L75.7,40.6z M69.8,33.3l2.8-7.7
				l1.6,7.7H69.8z"/>
			<path class="st6" d="M61.9,25l0.8-4.4c0,0-2.4-0.9-4.8-0.9c-2.7,0-9,1.2-9,6.8c0,5.3,7.4,5.4,7.4,8.2s-6.7,2.3-8.9,0.5l-0.8,4.6
				c0,0,2.4,1.2,6.1,1.2c3.7,0,9.2-1.9,9.2-7.1c0-5.4-7.5-5.9-7.5-8.2C54.4,23.4,59.6,23.7,61.9,25z"/>
		</g>
		<path class="st7" d="M27.7,31.1l-1.8-9.3c0,0-0.2-1.9-2.6-1.9h-8.5l-0.1,0.3c0,0,4.1,0.8,8,4C26.5,27.4,27.7,31.1,27.7,31.1z"/>
	</g>
</g>
</svg>
