<?xml version="1.0" encoding="utf-8"?>
<!-- Generator: Adobe Illustrator 22.1.0, SVG Export Plug-In . SVG Version: 6.00 Build 0)  -->
<svg version="1.1" id="Layer_1" xmlns="http://www.w3.org/2000/svg" xmlns:xlink="http://www.w3.org/1999/xlink" x="0px" y="0px"
	 viewBox="0 0 32 32" style="enable-background:new 0 0 32 32;" xml:space="preserve">
<style type="text/css">
	.st0{fill:#F8921A;}
	.st1{fill:#FFFFFF;}
</style>
<g>
	<path class="st0" d="M16,0L16,0c8.8,0,16,7.2,16,16l0,0c0,8.8-7.2,16-16,16l0,0C7.2,32,0,24.8,0,16l0,0C0,7.2,7.2,0,16,0z"/>
	<path class="st1" d="M23.8,13.4c0.4-2.4-1.3-3.7-3.7-4.6L21,5.5L19.1,5l-0.8,3.1c-0.5-0.1-1-0.3-1.5-0.4l0.8-3.2L15.7,4l-0.9,3.2
		C14.4,7.1,14,7,13.6,6.9l0,0L11,6.2l-0.6,2.1c0,0,1.4,0.4,1.4,0.4c0.8,0.2,0.9,0.8,0.9,1.2l-1,3.7c0.1,0,0.1,0,0.2,0.1l-0.2-0.1
		l-1.4,5.2c-0.1,0.2-0.3,0.6-0.9,0.4c0,0-1.4-0.4-1.4-0.4l-1,2.2l2.4,0.7c0.5,0.1,0.9,0.3,1.3,0.4L10,25.3l1.9,0.5l0.9-3.2
		c0.5,0.2,1,0.3,1.5,0.4l-0.9,3.2l1.9,0.5l0.9-3.3c3.2,0.7,5.6,0.5,6.7-2.5c0.9-2.4,0.1-3.9-1.6-4.8C22.5,16,23.5,15.2,23.8,13.4z
		 M19.3,19.6c-0.6,2.4-4.6,1-5.8,0.6l1.2-4.3C15.9,16.3,20,17.1,19.3,19.6L19.3,19.6z M15.1,14l1-3.9c1.1,0.3,4.5,0.9,3.9,3.2
		C19.4,15.5,16.2,14.3,15.1,14L15.1,14z"/>
</g>
</svg>
