<svg xmlns="http://www.w3.org/2000/svg" xmlns:xlink="http://www.w3.org/1999/xlink" viewBox="0 0 56 56" version="1.1"><!-- Generator: Sketch 55.1 (78136) - https://sketchapp.com --><title>cosmos</title><desc>Created with Sketch.</desc><g id="cosmos" stroke="none" stroke-width="1" fill="none" fill-rule="evenodd"><g id="Cosmos_Logo" fill-rule="nonzero"><circle id="Oval" fill="#2E3148" cx="28" cy="28" r="28"/><circle id="Oval" fill="#1B1E36" cx="28" cy="28" r="16.2469136"/><path d="M28.0576132,3.57201646 C25.0352263,3.57201646 22.5843621,14.5346502 22.5843621,28.0576132 C22.5843621,41.5805761 25.0352263,52.5432099 28.0576132,52.5432099 C31.08,52.5432099 33.5308642,41.5805761 33.5308642,28.0576132 C33.5308642,14.5346502 31.08,3.57201646 28.0576132,3.57201646 Z M28.4355556,51.1604938 C28.0898765,51.6213992 27.7441975,51.2757202 27.7441975,51.2757202 C26.3522634,49.6625514 25.6562963,46.6666667 25.6562963,46.6666667 C23.2215638,38.8312757 23.8011523,22.0082305 23.8011523,22.0082305 C24.9453498,8.65234568 27.0274897,5.49744856 27.7349794,4.79687243 C27.8845611,4.64958198 28.1183639,4.63111108 28.2892181,4.75308642 C29.317037,5.48131687 30.17893,8.52674897 30.17893,8.52674897 C32.7242798,17.9753086 32.4938272,26.8477366 32.4938272,26.8477366 C32.7242798,34.5679012 31.2182716,43.2098765 31.2182716,43.2098765 C30.0590947,49.7777778 28.4355556,51.1604938 28.4355556,51.1604938 Z" id="Shape" fill="#6F7390"/><path d="M49.2961317,15.872428 C47.7912757,13.2498765 37.0637037,16.5799177 25.3290535,23.3102881 C13.5944033,30.0406584 5.31539095,37.6213992 6.81909465,40.2427984 C8.32279835,42.8641975 19.0515226,39.5353086 30.7861728,32.8049383 C42.520823,26.0745679 50.7998354,18.4938272 49.2961317,15.872428 Z M8.20641975,39.8821399 C7.63028807,39.8095473 7.76049383,39.3359671 7.76049383,39.3359671 C8.46683128,37.3264198 10.7160494,35.2316049 10.7160494,35.2316049 C16.3033745,29.2202469 31.184856,21.3514403 31.184856,21.3514403 C43.3377778,15.697284 47.1125926,15.9358025 48.0701235,16.1985185 C48.2734253,16.2547753 48.4063942,16.4496014 48.3846914,16.6594239 C48.269465,17.9130864 46.051358,20.1761317 46.051358,20.1761317 C39.1262551,27.0897119 31.3150617,31.3058436 31.3150617,31.3058436 C24.7333333,35.3491358 16.4877366,38.3415638 16.4877366,38.3415638 C10.2136626,40.6023045 8.20641975,39.8821399 8.20641975,39.8821399 L8.20641975,39.8821399 Z" id="Shape" fill="#6F7390"/><path d="M49.2431276,40.3292181 C50.7595062,37.7135802 42.5023868,30.0971193 30.8069136,23.3172016 C19.1114403,16.537284 8.3873251,13.1657613 6.87209877,15.7860082 C5.35687243,18.4062551 13.6128395,26.018107 25.3140741,32.7980247 C37.0153086,39.5779424 47.7279012,42.949465 49.2431276,40.3292181 Z M7.87687243,16.7965432 C7.65218107,16.2653498 8.12576132,16.1374486 8.12576132,16.1374486 C10.2194239,15.7422222 13.16,16.6421399 13.16,16.6421399 C21.1601646,18.4638683 35.4251852,27.3996708 35.4251852,27.3996708 C46.4085597,35.0852675 48.0931687,38.4706173 48.3455144,39.4316049 C48.3984913,39.6350747 48.2973213,39.8471426 48.1058436,39.9339918 C46.9604938,40.4582716 43.8931687,39.677037 43.8931687,39.677037 C34.4388477,37.1420576 26.8776955,32.497284 26.8776955,32.497284 C20.0839506,28.8330864 13.3662551,23.1950617 13.3662551,23.1950617 C8.2617284,18.8971193 7.87917695,16.8011523 7.87917695,16.8011523 L7.87687243,16.7965432 Z" id="Shape" fill="#6F7390"/><circle id="Oval" fill="#B7B9C8" cx="28" cy="28" r="2.88065844"/><ellipse id="Oval" fill="#B7B9C8" cx="39.8106996" cy="16.9382716" rx="1.67078189" ry="1.72839506"/><ellipse id="Oval" fill="#B7B9C8" cx="12.3868313" cy="22.8148148" rx="1.67078189" ry="1.72839506"/><ellipse id="Oval" fill="#B7B9C8" cx="24.600823" cy="44.0164609" rx="1.67078189" ry="1.72839506"/></g></g></svg>