<?xml version="1.0" encoding="utf-8"?>
<!-- Generator: Adobe Illustrator 22.1.0, SVG Export Plug-In . SVG Version: 6.00 Build 0)  -->
<svg version="1.1" id="Layer_1" xmlns="http://www.w3.org/2000/svg" xmlns:xlink="http://www.w3.org/1999/xlink" x="0px" y="0px"
	 viewBox="0 0 56 56" style="enable-background:new 0 0 56 56;" xml:space="preserve">
<style type="text/css">
	.st0{fill:#A26800;}
	.st1{fill:#FFFFFF;}
</style>
<title>litecoin</title>
<desc>Created with Sketch.</desc>
<g>
	<ellipse class="st0" cx="28" cy="27.9" rx="27.9" ry="27.9"/>
</g>
<g>
	<path class="st1" d="M42.1,24.7H29.4v5.6h6.6v4.2c-1.6,1.2-3.7,1.7-6.2,1.7c-5.2,0-8.9-4-8.9-9.4v-0.1c0-5.1,3.7-9.1,8.5-9.1
		c3.5,0,5.4,1.1,7.7,3l4.1-4.9c-2.6-2.1-5.2-3.5-9-4V7.3h-5.2v4.5c-7.7,1.1-13,7.5-13,15.1v0.2c0,7.9,5.2,14,13,15v4h5.2v-4
		c4.2-0.5,7.5-2.3,10-4.6V24.7z"/>
</g>
</svg>
