<?xml version="1.0" encoding="utf-8"?>
<!-- Generator: Adobe Illustrator 22.1.0, SVG Export Plug-In . SVG Version: 6.00 Build 0)  -->
<svg version="1.1" id="Layer_1" xmlns="http://www.w3.org/2000/svg" xmlns:xlink="http://www.w3.org/1999/xlink" x="0px" y="0px"
	 viewBox="0 0 32 32" style="enable-background:new 0 0 32 32;" xml:space="preserve">
<style type="text/css">
	.st0{fill:#6FB92C;}
	.st1{fill:#FFFFFF;}
</style>
<g>
	<circle class="st0" cx="16" cy="16" r="16"/>
	<path class="st1" d="M6.9,8.9C6.9,8.9,6.9,8.9,6.9,8.9L8,9.4c0.1,0,0.1,0.1,0.2,0.1c0.2,0.1,0.5,0.2,0.7,0.3
		c0.2,0.1,0.4,0.2,0.6,0.3c0.5,0.2,0.9,0.4,1.4,0.7c1,0.5,2,1,3.1,1.5l0,0c0.1,0,0.1,0.1,0.1,0.1c0,1.2,0,2.3,0,3.5l0,10.7v0.1
		c0,0,0,0,0,0c0,0-0.1,0-0.1-0.1c-1-0.5-2.1-1-3.1-1.5C9.5,24.6,8.2,24,7,23.4c0,0-0.1,0-0.1,0L6.9,8.9L6.9,8.9z M17.8,4.6
		C17.8,4.7,17.9,4.7,17.8,4.6l7,3.5c0,0,0.1,0,0.1,0c0,0,0,0-0.1,0l-6.5,2.4l-2.9,1.1c-0.3,0.1-0.7,0.2-1,0.4c0,0-0.1,0-0.1,0
		c-1.1-0.5-2.1-1.1-3.2-1.6c0,0,0,0,0,0c0-0.1,0-0.1-0.1-0.1c-0.1-0.1-0.2-0.2-0.3-0.3c-0.1-0.1-0.2-0.2-0.3-0.3
		c-0.1-0.1-0.2-0.2-0.2-0.3L10,9.1C9.9,9,9.8,8.9,9.7,8.8C9.6,8.6,9.5,8.5,9.4,8.4C9.3,8.3,9.2,8.2,9.1,8.1c0,0-0.1-0.1-0.1-0.1
		c0,0,0,0,0,0c0.1,0,0,0,0-0.1L10,7.5l1.2-0.4l6.5-2.4C17.7,4.7,17.8,4.7,17.8,4.6L17.8,4.6L17.8,4.6z M25.1,8.5v14.6
		c0,0-0.1,0-0.1,0l-7.3-2.9c-0.1,0-0.1,0-0.1-0.1l0-8.7c0-0.1,0-0.1,0.1-0.1c0.8-0.3,1.6-0.6,2.4-0.9L25.1,8.5
		C25,8.5,25.1,8.5,25.1,8.5"/>
	<path class="st1" d="M9.1,7.8C9.1,7.9,9.1,7.9,9.1,7.8C9,7.9,9,7.9,9.1,7.9c0,0,0.1,0.1,0.1,0.1c0.1,0.1,0.2,0.2,0.3,0.3
		c0.1,0.1,0.2,0.3,0.3,0.4C9.8,8.9,9.9,9,10,9.1l0.3,0.3c0.1,0.1,0.2,0.2,0.2,0.3c0.1,0.1,0.2,0.2,0.3,0.3c0.1,0.1,0.2,0.2,0.3,0.3
		c0,0,0.1,0.1,0.1,0.1c-0.1,0-0.2-0.1-0.3-0.1L7.3,8.6c0,0-0.1,0-0.1-0.1c0,0,0,0,0.1,0L9.1,7.8C9.1,7.8,9.1,7.8,9.1,7.8"/>
</g>
</svg>
