<?xml version="1.0" encoding="utf-8"?>
<!-- Generator: Adobe Illustrator 22.1.0, SVG Export Plug-In . SVG Version: 6.00 Build 0)  -->
<svg version="1.1" id="Layer_1" xmlns="http://www.w3.org/2000/svg" xmlns:xlink="http://www.w3.org/1999/xlink" x="0px" y="0px"
	 viewBox="0 0 32 32" style="enable-background:new 0 0 32 32;" xml:space="preserve">
<style type="text/css">
	.st0{fill:url(#SVGID_1_);}
	.st1{fill:#FFFFFF;}
</style>
<g>
	
		<linearGradient id="SVGID_1_" gradientUnits="userSpaceOnUse" x1="0.1526" y1="31.9198" x2="0.4559" y2="31.4515" gradientTransform="matrix(56 0 0 -56 0 1792)">
		<stop  offset="0" style="stop-color:#00AAE4"/>
		<stop  offset="1" style="stop-color:#006097"/>
	</linearGradient>
	<path class="st0" d="M16,0L16,0c8.8,0,16,7.2,16,16l0,0c0,8.8-7.2,16-16,16l0,0C7.2,32,0,24.8,0,16l0,0C0,7.2,7.2,0,16,0z"/>
	<path class="st1" d="M17.6,6.3c-1.4,0.8-2.2,2.2-2.2,3.7c0,0.8,0.3,1.6,0.7,2.3c0.3,0.6,0.5,1.7-0.6,2.3c-0.8,0.5-1.9,0.2-2.4-0.6
		c-0.4-0.7-1-1.3-1.7-1.7c-2.1-1.2-4.9-0.5-6.1,1.6c-0.4,0.6-0.6,1.4-0.6,2.1c0,1.5,0.8,2.9,2.2,3.7c1.4,0.8,3.1,0.8,4.5,0
		c0.7-0.4,1.3-1.1,1.7-1.7c0.4-0.6,1.3-1.3,2.4-0.6c0.8,0.5,1.1,1.5,0.6,2.3c-0.4,0.7-0.7,1.5-0.7,2.3c0,2.4,2,4.3,4.5,4.3
		c2.5,0,4.5-1.9,4.5-4.3c0-1.5-0.8-3-2.2-3.7c-0.8-0.4-1.6-0.5-2.4-0.6c-0.7,0-1.8-0.5-1.8-1.7c0-0.9,0.8-1.7,1.8-1.7
		c0.8,0,1.7-0.2,2.4-0.6c1.4-0.8,2.2-2.2,2.2-3.7c0-0.8-0.2-1.5-0.6-2.1c-0.8-1.4-2.3-2.1-3.8-2.1C19,5.7,18.2,5.9,17.6,6.3
		L17.6,6.3z"/>
</g>
</svg>
