<svg xmlns="http://www.w3.org/2000/svg" xmlns:xlink="http://www.w3.org/1999/xlink" viewBox="0 0 56 56" version="1.1"><!-- Generator: Sketch 53.2 (72643) - https://sketchapp.com --><title>tron_original</title><desc>Created with Sketch.</desc><g id="tron_original" stroke="none" stroke-width="1" fill="none" fill-rule="evenodd"><g id="trx" fill-rule="nonzero"><circle id="Oval" fill="#D53432" cx="28" cy="28" r="28"/><path d="M46.397377,19.7101639 C44.8091803,18.5993443 43.1108197,17.415082 41.4491803,16.24 C41.412459,16.212459 41.3757377,16.184918 41.3298361,16.157377 C41.1462295,16.0196721 40.935082,15.8727869 40.6780328,15.7901639 L40.6596721,15.7809836 C36.2163934,14.7068852 31.6996721,13.6052459 27.3298361,12.5403279 C23.3639344,11.5763934 19.4072131,10.612459 15.4413115,9.64852459 C15.3403279,9.62098361 15.2393443,9.59344262 15.1291803,9.56590164 C14.7711475,9.46491803 14.3580328,9.3547541 13.917377,9.40983607 C13.7888525,9.42819672 13.6786885,9.47409836 13.5777049,9.53836066 L13.467541,9.63016393 C13.2931148,9.79540984 13.2013115,10.0065574 13.1554098,10.1259016 L13.1278689,10.1993443 L13.1278689,10.6216393 L13.1462295,10.6859016 C15.652459,17.7088525 18.2229508,24.8327869 20.7016393,31.7272131 C22.6111475,37.0334426 24.5940984,42.532459 26.5311475,47.9304918 C26.6504918,48.2977049 26.9901639,48.5363934 27.412459,48.5731148 L27.5042623,48.5731148 C27.8990164,48.5731148 28.2478689,48.3803279 28.4222951,48.0681967 L35.6931148,37.464918 C37.464918,34.8852459 39.2367213,32.2963934 41.0085246,29.7167213 C41.7337705,28.6609836 42.4590164,27.5960656 43.1842623,26.5403279 C44.3777049,24.7960656 45.6078689,22.9967213 46.8288525,21.2432787 L46.8931148,21.1514754 L46.8931148,21.0413115 C46.9206557,20.72 46.9298361,20.0590164 46.397377,19.7101639 M37.8780328,23.575082 C36.1704918,24.4655738 34.4262295,25.3836066 32.6727869,26.292459 C33.6918033,25.2 34.72,24.0983607 35.7390164,23.0059016 C37.015082,21.6288525 38.3462295,20.2059016 39.6498361,18.8104918 L39.677377,18.7829508 C39.787541,18.6360656 39.9252459,18.4983607 40.0721311,18.3514754 C40.1731148,18.2504918 40.2832787,18.1495082 40.3842623,18.0301639 C41.0636066,18.4983607 41.7521311,18.9757377 42.4131148,19.4439344 C42.8904918,19.7836066 43.3770492,20.1232787 43.8727869,20.4629508 C41.8531148,21.4911475 39.8334426,22.5468852 37.8780328,23.575082 M33.4898361,23.1344262 C32.1770492,24.557377 30.8183607,26.0170492 29.4688525,27.4583607 C26.852459,24.2819672 24.1809836,21.0596721 21.5921311,17.947541 C20.4170492,16.5337705 19.2327869,15.1108197 18.0577049,13.6970492 L18.0485246,13.6878689 C17.7822951,13.384918 17.5252459,13.0544262 17.2681967,12.7422951 C17.1029508,12.5311475 16.9285246,12.3291803 16.7540984,12.1180328 C17.8190164,12.3934426 18.8931148,12.6504918 19.9488525,12.8983607 C20.8760656,13.1186885 21.84,13.3481967 22.7855738,13.5868852 C28.1101639,14.8813115 33.4439344,16.1757377 38.7685246,17.4701639 C36.9967213,19.3613115 35.2157377,21.28 33.4898361,23.1344262 M28.8721311,41.0268852 C28.9731148,40.0629508 29.0832787,39.0714754 29.175082,38.0983607 C29.2577049,37.3180328 29.3403279,36.5193443 29.4229508,35.757377 C29.5514754,34.5363934 29.6891803,33.2695082 29.7993443,32.0301639 L29.8268852,31.8098361 C29.9186885,31.0203279 30.0104918,30.2032787 30.0655738,29.3862295 C30.1665574,29.3311475 30.2767213,29.2760656 30.3960656,29.2301639 C30.5337705,29.1659016 30.6714754,29.1108197 30.8091803,29.0281967 C32.9298361,27.917377 35.0504918,26.8065574 37.1803279,25.704918 C39.3009836,24.6032787 41.4767213,23.464918 43.6340984,22.3357377 C41.6695082,25.1816393 39.6957377,28.055082 37.7862295,30.855082 C36.1429508,33.2511475 34.4537705,35.7206557 32.7737705,38.1534426 C32.1127869,39.1265574 31.4242623,40.1180328 30.772459,41.0727869 C30.0380328,42.1377049 29.2852459,43.2301639 28.5508197,44.322623 C28.642623,43.2209836 28.7527869,42.1101639 28.8721311,41.0268852 M16.0747541,14.2845902 C15.9554098,13.9540984 15.8268852,13.6144262 15.7167213,13.2931148 C18.1954098,16.2859016 20.692459,19.2970492 23.1252459,22.2163934 C24.3829508,23.7311475 25.6406557,25.2367213 26.8983607,26.7606557 C27.1462295,27.0452459 27.3940984,27.3481967 27.6327869,27.6419672 C27.944918,28.0183607 28.2570492,28.4131148 28.5967213,28.7895082 C28.4865574,29.735082 28.3947541,30.6898361 28.2937705,31.6078689 C28.2295082,32.2504918 28.1652459,32.8931148 28.0918033,33.544918 L28.0918033,33.5540984 C28.0642623,33.9672131 28.0091803,34.3803279 27.9632787,34.7842623 C27.8990164,35.3442623 27.7521311,36.6111475 27.7521311,36.6111475 L27.7429508,36.6754098 C27.5777049,38.5298361 27.3757377,40.402623 27.1829508,42.2203279 C27.1003279,42.9731148 27.0268852,43.7442623 26.9442623,44.5154098 C26.8983607,44.3777049 26.8432787,44.24 26.797377,44.1114754 C26.6596721,43.7442623 26.5219672,43.3586885 26.3934426,42.9822951 L25.4111475,40.2557377 C22.2990164,31.5986885 19.1868852,22.9508197 16.0747541,14.2845902" id="Shape" fill="#FFFFFF"/></g></g></svg>