<?xml version="1.0" encoding="utf-8"?>
<!-- Generator: Adobe Illustrator 22.1.0, SVG Export Plug-In . SVG Version: 6.00 Build 0)  -->
<svg version="1.1" id="Layer_1" xmlns="http://www.w3.org/2000/svg" xmlns:xlink="http://www.w3.org/1999/xlink" x="0px" y="0px"
	 viewBox="0 0 32 32" style="enable-background:new 0 0 32 32;" xml:space="preserve">
<style type="text/css">
	.st0{fill:#45CB3E;}
	.st1{fill:#FFFFFF;}
</style>
<g>
	<path class="st0" d="M16,0L16,0c8.8,0,16,7.2,16,16l0,0c0,8.8-7.2,16-16,16l0,0C7.2,32,0,24.8,0,16l0,0C0,7.2,7.2,0,16,0z"/>
	<path class="st1" d="M21.6,10.1c-0.8-2.3-3-2.6-5.5-2.2l-0.9-3.2l-1.9,0.5l0.8,3.1c-0.5,0.1-1,0.3-1.5,0.4l-0.9-3.2L10,6l0.9,3.2
		C10.4,9.3,10,9.4,9.6,9.5l0,0L7,10.1l0.6,2.1c0,0,1.4-0.4,1.4-0.3c0.8-0.2,1.1,0.2,1.3,0.6l1,3.7c0.1,0,0.1,0,0.2,0l-0.2,0l1.4,5.2
		c0,0.3,0,0.7-0.5,0.8c0,0-1.4,0.3-1.4,0.3l0.3,2.4l2.5-0.6c0.5-0.1,0.9-0.2,1.4-0.3l0.9,3.3l1.9-0.5l-0.9-3.2
		c0.5-0.1,1-0.2,1.5-0.4l0.9,3.2l1.9-0.5l-0.9-3.3c3.1-1,5.2-2.4,4.6-5.5c-0.4-2.6-1.9-3.4-3.8-3.4C21.9,12.9,22.3,11.7,21.6,10.1z
		 M20.9,17.7c0.7,2.4-3.5,3.2-4.7,3.5L15,16.8C16.3,16.5,20.2,15.1,20.9,17.7L20.9,17.7z M14.4,14.9l-1.1-3.9c1.1-0.3,4.3-1.5,5,0.9
		C18.9,14,15.5,14.6,14.4,14.9z"/>
</g>
</svg>
