<?xml version="1.0" encoding="utf-8"?>
<!-- Generator: Adobe Illustrator 22.1.0, SVG Export Plug-In . SVG Version: 6.00 Build 0)  -->
<svg version="1.1" id="Layer_1" xmlns="http://www.w3.org/2000/svg" xmlns:xlink="http://www.w3.org/1999/xlink" x="0px" y="0px"
	 viewBox="0 0 32 32" style="enable-background:new 0 0 32 32;" xml:space="preserve">
<style type="text/css">
	.st0{fill:#F0F0F0;}
	.st1{fill:#343434;}
	.st2{fill:#8C8C8C;}
	.st3{fill:#3C3C3B;}
	.st4{fill:#141414;}
	.st5{fill:#393939;}
</style>
<g>
	<path class="st0" d="M16,0L16,0c8.8,0,16,7.2,16,16l0,0c0,8.8-7.2,16-16,16l0,0C7.2,32,0,24.8,0,16l0,0C0,7.2,7.2,0,16,0z"/>
	<path class="st1" d="M15.9,5.1l-0.1,0.5V20l0.1,0.1l6.8-3.9L15.9,5.1z"/>
	<path class="st2" d="M15.9,5.1L9.1,16.2l6.8,3.9v-7V5.1z"/>
	<path class="st3" d="M15.9,21.4l-0.1,0.1v5.1l0.1,0.2l6.8-9.4L15.9,21.4z"/>
	<path class="st2" d="M15.9,26.9v-5.5l-6.8-3.9L15.9,26.9z"/>
	<path class="st4" d="M15.9,20.1l6.8-3.9l-6.8-3V20.1z"/>
	<path class="st5" d="M9.1,16.2l6.8,3.9v-7L9.1,16.2z"/>
</g>
</svg>
