<?xml version="1.0" encoding="utf-8"?>
<!-- Generator: Adobe Illustrator 22.1.0, SVG Export Plug-In . SVG Version: 6.00 Build 0)  -->
<svg version="1.1" id="Layer_1" xmlns="http://www.w3.org/2000/svg" xmlns:xlink="http://www.w3.org/1999/xlink" x="0px" y="0px"
	 viewBox="0 0 32 32" style="enable-background:new 0 0 32 32;" xml:space="preserve">
<style type="text/css">
	.st0{fill:#1A53F0;}
	.st1{fill:#FFFFFF;}
</style>
<g>
	<circle class="st0" cx="16" cy="16" r="16"/>
	<path class="st1" d="M11,16.3c-2.6,0-4.7,2.1-4.7,4.7c0,2.6,2.1,4.7,4.7,4.7s4.7-2.1,4.7-4.7S13.6,16.3,11,16.3L11,16.3z M11,24.3
		c-1.8,0-3.3-1.5-3.3-3.3c0-1.8,1.5-3.3,3.3-3.3c1.8,0,3.3,1.5,3.3,3.3C14.2,22.8,12.8,24.3,11,24.3z M21,6.3
		c-2.6,0-4.7,2.1-4.7,4.7s2.1,4.7,4.7,4.7s4.7-2.1,4.7-4.7S23.6,6.3,21,6.3z M21,14.3c-1.8,0-3.3-1.5-3.3-3.3s1.5-3.3,3.3-3.3
		c1.8,0,3.3,1.5,3.3,3.3C24.3,12.8,22.8,14.3,21,14.3z M11,6.3c-2.2,0-4.2,1.6-4.6,3.8c-0.4,2.2,0.7,4.4,2.8,5.3
		c2.1,0.9,4.4,0.2,5.7-1.7c1.3-1.8,1-4.3-0.5-5.9h1.3V6.3H11L11,6.3z M14.2,11c0,1.8-1.5,3.3-3.3,3.3c-1.8,0-3.3-1.5-3.3-3.3
		S9.2,7.7,11,7.7C12.8,7.7,14.2,9.2,14.2,11L14.2,11L14.2,11z"/>
</g>
</svg>
