<?xml version="1.0" encoding="utf-8"?>
<!-- Generator: Adobe Illustrator 22.1.0, SVG Export Plug-In . SVG Version: 6.00 Build 0)  -->
<svg version="1.1" id="Layer_1" xmlns="http://www.w3.org/2000/svg" xmlns:xlink="http://www.w3.org/1999/xlink" x="0px" y="0px"
	 viewBox="0 0 32 32" style="enable-background:new 0 0 32 32;" xml:space="preserve">
<style type="text/css">
	.st0{fill:#44B3E2;}
	.st1{fill:#5A6A73;}
	.st2{fill:#EE8100;}
	.st3{fill:#FFFFFF;}
	.st4{fill:#EEBB00;}
</style>
<g>
	<circle class="st0" cx="16" cy="16" r="16"/>
	<path class="st1" d="M9.9,19.5c-0.7-0.5-1-1.1-0.6-1.9c0.1-0.3-0.1-0.3-0.3-0.3c-1.3-0.5-2.6-0.6-3.9-0.2c-0.1,0-0.3,0.2-0.4,0
		c-0.1-0.1,0-0.3,0.1-0.4c1.3-1.6,2.8-2.8,4.9-3.3c0.5-0.1,0.9-0.1,1.4-0.1c0.5,0.1,1.4-0.1,1.6-0.5c5,3.2,7.5,4.8,7.4,4.8
		c-0.8,0.7-0.3,1.4,0.1,2.5c0.7,1.9,0.1,3.8-0.9,5.6c-0.2,0.3-0.3,0.8-0.6,0.8c-0.3-0.1-0.2-0.6-0.2-0.9c-0.2-1.1-0.8-2.1-1.5-3
		c-0.1-0.1-0.2-0.3-0.4-0.1c-0.7,0.8-1.4,0.5-2.1,0.1c-0.3,0-0.5-0.2-0.7-0.4c-1-0.7-2.1-1.4-3.1-2.2C10.4,19.9,10,19.9,9.9,19.5"/>
	<path class="st2" d="M13.9,22.3c0.2,0.1,0.4,0.2,0.6,0.4c-0.8,1.2-1.7,2.2-2.9,2.8c-0.9,0.5-1.8,0.8-2.7,0.1C8,25,8,24,8.2,23
		c0.2-1.3,0.9-2.5,1.7-3.5l0.8,0.6c0,0.4-0.3,0.6-0.4,0.9c-0.3,0.6-0.5,1.2-0.5,1.9c0,0.9,0.6,1.3,1.5,1.1c0.6-0.1,1.1-0.5,1.5-0.9
		C13.2,22.8,13.4,22.4,13.9,22.3"/>
	<path class="st3" d="M21.4,16c-1.8,1.9-4.2,4.6-5.9,6.6c-0.4,0.5-0.7,0.6-1.2,0.2c-1.5-1-3.1-2.1-4.6-3.2C9.1,19.2,9,19,9.4,18.4
		c1.4-2.4,3.5-5.4,4.8-7.8c1.2-2.2,3.1-3.4,5.4-4.1c0.9-0.3,1.9-0.4,2.8-0.5c0.5,0,0.7,0.1,0.8,0.6c0.3,1.1,0.4,2.3,0.5,3.4
		C23.8,12.4,23,14.3,21.4,16L21.4,16z"/>
	<path class="st4" d="M13.9,22.6c-0.7,0.7-1.3,1.5-2.2,1.9c-0.6,0.3-1.3,0.6-2,0.1C9,24,9,23.3,9.1,22.5c0.2-0.9,0.6-1.7,1.1-2.4
		L13.9,22.6"/>
	<path class="st1" d="M18.7,14.9c-1.5,0-2.8-1.3-2.8-2.9c0-1.6,1.3-2.8,2.9-2.8c1.5,0,2.8,1.3,2.8,2.9
		C21.6,13.6,20.3,14.9,18.7,14.9"/>
</g>
</svg>
