<?xml version="1.0" encoding="utf-8"?>
<!-- Generator: Adobe Illustrator 22.1.0, SVG Export Plug-In . SVG Version: 6.00 Build 0)  -->
<svg version="1.1" id="Layer_1" xmlns="http://www.w3.org/2000/svg" xmlns:xlink="http://www.w3.org/1999/xlink" x="0px" y="0px"
	 viewBox="0 0 212 40" style="enable-background:new 0 0 212 40;" xml:space="preserve">
<style type="text/css">
	.st0{fill:#FFFFFF;}
	.st1{fill:#E39800;}
	.st2{fill:#F6A400;}
	.st3{fill:#3A2700;}
	.st4{fill:#6A4900;}
	.st5{fill:#A87400;}
	.st6{fill:#BC8000;}
	.st7{fill:#FCCA7A;}
	.st8{fill:#FFE5C0;}
</style>
<g>
	<g>
		<path class="st0" d="M79.2,21.8c-6.4,0-10.8-4.5-10.8-10.6v-0.1c0-5.9,4.6-10.7,10.8-10.7c3.7,0,5.9,1,8.1,2.8l-2.9,3.4
			c-1.6-1.3-3-2.1-5.4-2.1c-3.3,0-5.9,2.9-5.9,6.4v0.1c0,3.8,2.6,6.5,6.2,6.5c1.6,0,3.1-0.4,4.3-1.2v-2.9H79V9.6h9v9
			C85.9,20.3,83,21.8,79.2,21.8z"/>
		<path class="st0" d="M92,21.4V0.8h4.5v20.6H92z"/>
		<path class="st0" d="M100.5,21.4V0.8h4.5v16.5h10.3v4.1H100.5z"/>
		<path class="st0" d="M126.2,21.4h-8V0.8h8c6.5,0,11,4.4,11,10.2v0.1C137.1,16.9,132.6,21.4,126.2,21.4z M132.4,11.1
			c0-3.7-2.5-6.2-6.2-6.2h-3.5v12.4h3.5C129.9,17.3,132.4,14.8,132.4,11.1L132.4,11.1z"/>
		<path class="st0" d="M152.2,21.8c-5.9,0-10.3-4.7-10.3-10.6c0-5.9,4.4-10.7,10.4-10.7c3.7,0,6,1.3,8,3.3l-1.6,1.7
			c-1.7-1.6-3.7-2.8-6.5-2.8c-4.6,0-8,3.7-8,8.5s3.4,8.5,8,8.5c2.8,0,4.7-1.1,6.7-3l1.5,1.5C158.3,20.3,155.9,21.8,152.2,21.8z"/>
		<path class="st0" d="M172.9,21.8c-6.3,0-10.5-4.9-10.5-10.6S166.7,0.5,173,0.5s10.5,4.9,10.5,10.6S179.2,21.8,172.9,21.8z
			 M172.9,2.6c-4.7,0-8.1,3.8-8.1,8.5c0,4.7,3.4,8.5,8.1,8.5c4.7,0,8.1-3.8,8.1-8.5C181,6.4,177.6,2.6,172.9,2.6z"/>
		<path class="st0" d="M189.7,0.8v20.6h-2.3V0.8H189.7z"/>
		<path class="st0" d="M209.7,0.8h2.3v20.6h-1.9L196.8,4.5v16.9h-2.3V0.8h2.2l13,16.5V0.8z"/>
	</g>
	<g>
		<g>
			<path class="st1" d="M95.9,29.8v6.7H94v-6.7h-2.6v-1.7h7v1.7H95.9z"/>
			<path class="st1" d="M115.5,36.5l-1.8-2.7h-1.5v2.7h-1.8v-8.4h3.8c2,0,3.2,1,3.2,2.8v0c0,1.4-0.7,2.2-1.8,2.6l2.1,3H115.5z
				 M115.6,30.9c0-0.8-0.6-1.2-1.5-1.2h-1.8v2.4h1.9C115.1,32.1,115.6,31.7,115.6,30.9L115.6,30.9z"/>
			<path class="st1" d="M135.9,36.5l-0.8-1.9h-3.6l-0.8,1.9H129l3.6-8.5h1.7l3.6,8.5H135.9z M133.4,30.2l-1.1,2.7h2.2L133.4,30.2z"
				/>
			<path class="st1" d="M153,36.5h-3.3v-8.4h3.3c2.6,0,4.5,1.8,4.5,4.2v0C157.5,34.6,155.7,36.5,153,36.5z M155.6,32.3
				c0-1.5-1-2.5-2.5-2.5h-1.4v5.1h1.4C154.5,34.8,155.6,33.8,155.6,32.3L155.6,32.3z"/>
			<path class="st1" d="M169.8,36.5v-8.4h1.8v8.4H169.8z"/>
			<path class="st1" d="M190.2,36.5l-4.1-5.3v5.3h-1.8v-8.4h1.7l3.9,5.2v-5.2h1.8v8.4H190.2z"/>
			<path class="st1" d="M208.4,36.6c-2.6,0-4.4-1.8-4.4-4.3v0c0-2.4,1.9-4.3,4.4-4.3c1.5,0,2.4,0.4,3.3,1.2l-1.2,1.4
				c-0.6-0.5-1.2-0.9-2.2-0.9c-1.3,0-2.4,1.2-2.4,2.6v0c0,1.5,1.1,2.7,2.5,2.7c0.7,0,1.3-0.2,1.7-0.5v-1.2h-1.9v-1.6h3.7v3.7
				C211.1,36,209.9,36.6,208.4,36.6z"/>
		</g>
	</g>
	<g>
		<g>
			<path class="st2" d="M4.6,21.1c-1.2,0.9-1.9,1.8-1.9,2.7c0,3.4,9.6,6.3,21.8,6.9l8.2,0.5c-1.2,0-2.4,0.1-3.7,0.1
				c-14.1,0-25.8-2.9-27.2-6.7c-0.1-0.3-0.1-0.5-0.1-0.8c0-0.5,0.3-0.8,0.5-1.1c0.5-0.7,1.3-1.3,2.4-1.9L4.6,21.1z"/>
			<g>
				<path class="st3" d="M55.8,33.6c0.9-0.9,0.9-2.3,0.9-2.4v-6.8c0-0.1,0-0.3,0-0.4c0,0.1,0,0.1,0,0.2c0,0.6-0.3,1.2-0.9,1.8V33.6z
					"/>
				<path class="st4" d="M55,34.2c0.1,0,0.1-0.1,0.2-0.1v-7.5c-0.3,0.2-0.7,0.5-1.1,0.7v7.4C54.4,34.5,54.7,34.4,55,34.2z"/>
				<path class="st5" d="M53.5,35.1v-7.4c-0.4,0.2-0.9,0.4-1.5,0.7v7.5C52.5,35.6,53,35.3,53.5,35.1z"/>
				<path class="st6" d="M51.5,36.1v-7.6c-0.7,0.2-1.4,0.5-2.1,0.7V37C50,36.8,50.8,36.5,51.5,36.1z"/>
				<path class="st1" d="M48.7,37.3v-7.8c-0.9,0.2-1.9,0.5-2.9,0.7v8.1C46.8,37.9,47.8,37.6,48.7,37.3z"/>
				<path class="st2" d="M45.2,38.3v-8.1c-1.3,0.3-2.7,0.5-4.2,0.7v8.2C42.5,38.9,43.9,38.7,45.2,38.3z"/>
				<path class="st7" d="M40.4,39.2V31c-2,0.2-4.2,0.4-6.5,0.5v8.2C36.3,39.6,38.4,39.4,40.4,39.2z"/>
				<path class="st8" d="M33.3,39.7v-8.2c-1.4,0.1-2.8,0.1-4.3,0.1c-1.5,0-3,0-4.4-0.1v8.1c1.4,0.1,2.8,0.1,4.3,0.1
					C30.5,39.8,31.9,39.7,33.3,39.7z"/>
				<path class="st7" d="M17.5,39.1c1.9,0.2,4.1,0.4,6.5,0.6v-8.1c-2.3-0.1-4.5-0.3-6.5-0.5V39.1z"/>
				<path class="st2" d="M12.7,38.3c1.3,0.3,2.7,0.5,4.2,0.7v-8.1c-1.5-0.2-2.9-0.4-4.2-0.7V38.3z"/>
				<path class="st1" d="M9.2,37.3c0.9,0.3,1.9,0.6,2.9,0.8v-8c-1-0.2-2-0.4-2.9-0.7V37.3z"/>
				<path class="st6" d="M6.4,36.3c0.6,0.3,1.3,0.6,2.1,0.8v-7.9c-0.8-0.2-1.5-0.5-2.1-0.7V36.3z"/>
				<path class="st5" d="M4.3,35.2c0.4,0.3,0.9,0.5,1.5,0.8v-7.7c-0.5-0.2-1-0.4-1.5-0.7V35.2z"/>
				<path class="st4" d="M2.7,34.1c0.3,0.3,0.7,0.5,1.1,0.8v-7.6c-0.4-0.2-0.8-0.5-1.1-0.8V34.1z"/>
				<path class="st3" d="M2.1,26c-0.5-0.6-0.8-1.1-0.8-1.7c0-0.3,0.1-0.7,0.3-1h0c-0.2,0.4-0.3,0.8-0.3,1.3c0,0,0,5.9,0,7
					c0,1,0.5,1.7,0.7,1.8c0.1,0.1,0.2,0.2,0.2,0.2V26z"/>
			</g>
		</g>
		<g>
			<path class="st2" d="M48.1,20.8c6.9-1.3,11.4-3.5,11.6-6c-0.3-1.5-2-2.8-4.8-4l0,0.6c2.1,1,3.4,2.1,3.4,3.4c0,2-3.2,3.7-8.2,5
				L48.1,20.8z"/>
			<g>
				<path class="st3" d="M59.2,24.6c0.9-0.9,0.9-2.3,0.9-2.4v-6.8c0-0.1,0-0.3,0-0.4c0,0.1,0,0.1,0,0.2c0,0.6-0.3,1.2-0.9,1.8V24.6z
					"/>
				<path class="st4" d="M58.4,25.1c0.1,0,0.1-0.1,0.2-0.1v-7.5c-0.3,0.2-0.7,0.5-1.1,0.7v7.4C57.8,25.5,58.1,25.3,58.4,25.1z"/>
				<path class="st5" d="M56.9,26v-7.4c-0.4,0.2-0.9,0.4-1.5,0.7v7.5C56,26.5,56.5,26.3,56.9,26z"/>
				<path class="st6" d="M54.9,27v-7.6c-0.7,0.2-1.4,0.5-2.1,0.7V28C53.5,27.7,54.2,27.4,54.9,27z"/>
				<path class="st1" d="M52.1,28.2v-7.8c-0.9,0.2-1.9,0.5-2.9,0.7v8.1C50.2,28.9,51.2,28.5,52.1,28.2z"/>
				<path class="st2" d="M48.6,29.3v-8.1c-1.3,0.3-2.7,0.5-4.2,0.7v8.2C45.9,29.9,47.3,29.6,48.6,29.3z"/>
				<path class="st3" d="M4.6,20.6c0,0.8,0,1.5,0,1.8c0,1,0.5,1.7,0.7,1.8c0.1,0.1,0.2,0.2,0.2,0.2v-3.6C5.2,20.8,4.9,20.7,4.6,20.6
					z"/>
				<path class="st4" d="M6.1,21v4c0.3,0.3,0.7,0.5,1.1,0.8v-4.5C6.8,21.2,6.4,21.1,6.1,21z"/>
				<path class="st5" d="M7.8,21.5v4.7c0.4,0.3,0.9,0.5,1.5,0.8v-5.1C8.8,21.7,8.3,21.6,7.8,21.5z"/>
				<path class="st6" d="M9.8,21.9v5.3c0.6,0.3,1.3,0.6,2.1,0.8v-5.7C11.3,22.2,10.6,22.1,9.8,21.9z"/>
				<path class="st1" d="M12.6,22.5v5.8c0.9,0.3,1.9,0.6,2.9,0.8v-6.2C14.5,22.8,13.6,22.6,12.6,22.5z"/>
				<path class="st2" d="M16.1,23v6.2c1.3,0.3,2.7,0.5,4.2,0.7v-6.5C18.9,23.3,17.5,23.2,16.1,23z"/>
				<path class="st7" d="M20.9,23.4V30c1.9,0.2,4.1,0.4,6.5,0.6v-7C25.4,23.6,23.2,23.6,20.9,23.4z"/>
				<path class="st8" d="M28,23.6v7c1.4,0.1,2.8,0.1,4.3,0.1c1.5,0,3,0,4.3-0.1V23C34.3,23.3,31.3,23.5,28,23.6z"/>
				<path class="st7" d="M37.3,22.9v7.7c2.4-0.1,4.6-0.2,6.5-0.5v-8.2c-0.3,0-0.5,0.1-0.8,0.1C41.9,22.2,39.9,22.6,37.3,22.9z"/>
			</g>
		</g>
		<g>
			<path class="st2" d="M27.8,14.6c14.9,0,27-3.3,27.3-7.3c-0.7-4-12.3-7.2-26.7-7.3c3.6,0.2,8,0.7,13.4,1.6
				c7.2,1.2,11.9,3.3,11.9,5.7c0,3.8-11.6,6.8-25.9,6.8c-14.3,0-25.9-3.1-25.9-6.8c0-1.4,1.2-2.9,3.6-4.1c-2.7,1.1-4.5,2.3-5,3.7
				c0,0.1,0,0.1,0,0.2C0.4,11.2,12.7,14.6,27.8,14.6z"/>
			<g>
				<path class="st3" d="M54.6,17c0.9-0.9,0.9-2.3,0.9-2.4V7.9c0-0.1,0-0.3,0-0.4c0,0.1,0,0.1,0,0.2c0,0.6-0.3,1.2-0.9,1.8V17z"/>
				<path class="st4" d="M53.8,17.6c0.1,0,0.1-0.1,0.2-0.1V10c-0.3,0.2-0.7,0.5-1.1,0.7v7.4C53.2,18,53.5,17.8,53.8,17.6z"/>
				<path class="st5" d="M52.3,18.5v-7.4c-0.4,0.2-0.9,0.4-1.5,0.7v7.5C51.3,19,51.8,18.7,52.3,18.5z"/>
				<path class="st6" d="M50.2,19.5V12c-0.7,0.2-1.4,0.5-2.1,0.7v7.8C48.8,20.2,49.5,19.9,50.2,19.5z"/>
				<path class="st1" d="M47.5,20.7v-7.8c-0.9,0.2-1.9,0.5-2.9,0.7v8.1C45.6,21.3,46.6,21,47.5,20.7z"/>
				<path class="st2" d="M44,21.7v-8.1c-1.3,0.3-2.7,0.5-4.2,0.7v8.2C41.3,22.3,42.7,22.1,44,21.7z"/>
				<path class="st7" d="M39.2,22.6v-8.2c-2,0.2-4.2,0.4-6.5,0.5v8.2C35.1,23,37.2,22.8,39.2,22.6z"/>
				<path class="st8" d="M32.1,23.1v-8.2C30.7,15,29.2,15,27.8,15c-1.5,0-3,0-4.4-0.1v8.1c1.4,0.1,2.8,0.1,4.3,0.1
					C29.3,23.2,30.7,23.1,32.1,23.1z"/>
				<path class="st7" d="M16.3,22.5c1.9,0.2,4.1,0.4,6.5,0.6v-8.1c-2.3-0.1-4.5-0.3-6.5-0.5V22.5z"/>
				<path class="st2" d="M11.5,21.7c1.3,0.3,2.7,0.5,4.2,0.7v-8.1c-1.5-0.2-2.9-0.4-4.2-0.7V21.7z"/>
				<path class="st1" d="M7.9,20.7c0.9,0.3,1.9,0.6,2.9,0.8v-8c-1-0.2-2-0.4-2.9-0.7V20.7z"/>
				<path class="st6" d="M5.2,19.7c0.6,0.3,1.3,0.6,2.1,0.8v-7.9c-0.8-0.2-1.5-0.5-2.1-0.7V19.7z"/>
				<path class="st5" d="M3.1,18.6c0.4,0.3,0.9,0.5,1.5,0.8v-7.7c-0.5-0.2-1-0.4-1.5-0.7V18.6z"/>
				<path class="st4" d="M1.4,17.5c0.3,0.3,0.7,0.5,1.1,0.8v-7.6c-0.4-0.2-0.8-0.5-1.1-0.8V17.5z"/>
				<path class="st3" d="M0.8,9.4C0.3,8.8,0.1,8.2,0.1,7.7c0-0.3,0.1-0.7,0.3-1h0C0.1,7.1,0,7.5,0,7.9c0,0,0,5.9,0,7
					c0,1,0.5,1.7,0.7,1.8c0.1,0.1,0.2,0.2,0.2,0.2V9.4z"/>
			</g>
		</g>
		<g>
			<path class="st2" d="M2.8,8.2c0-2.1,1-3.2,1-3.2c-0.5,0.2-2.1,1.1-2.1,3c0,1.1,1.2,2.1,3.3,3C3.7,10.1,2.8,9.2,2.8,8.2z"/>
			<path class="st2" d="M38.5,1.7c7.9,1.1,13.4,3.9,13.4,6.4c0,1.4-1.7,2.8-4.7,3.8c4.1-1.1,6.7-2.5,6.7-4.1
				C53.8,5.4,47.5,2.7,38.5,1.7z"/>
		</g>
	</g>
</g>
</svg>
