<?xml version="1.0" encoding="utf-8"?>
<!-- Generator: Adobe Illustrator 22.1.0, SVG Export Plug-In . SVG Version: 6.00 Build 0)  -->
<svg version="1.1" id="Layer_1" xmlns="http://www.w3.org/2000/svg" xmlns:xlink="http://www.w3.org/1999/xlink" x="0px" y="0px"
	 viewBox="0 0 114 81" style="enable-background:new 0 0 114 81;" xml:space="preserve">
<style type="text/css">
	.st0{fill-rule:evenodd;clip-rule:evenodd;fill:#FFFFFF;}
	.st1{fill-rule:evenodd;clip-rule:evenodd;fill:#DAE182;}
	.st2{fill-rule:evenodd;clip-rule:evenodd;fill:#93C01F;}
	.st3{fill-rule:evenodd;clip-rule:evenodd;fill:#862216;}
	.st4{fill:#D19360;}
	.st5{fill-rule:evenodd;clip-rule:evenodd;fill:#E20D17;}
</style>
<rect y="10.9" class="st0" width="114" height="59.2"/>
<g>
	<path class="st0" d="M34.7,24.3h7.9c2.5,0,4.6,2.1,4.6,4.6v13.2c0,2.5-2.1,4.6-4.6,4.6h-7.9c-2.5,0-4.6-2.1-4.6-4.6V28.9
		C30.1,26.4,32.2,24.3,34.7,24.3L34.7,24.3z"/>
	<path class="st1" d="M45.5,66.4H31.9c-2,0-3.6-1.6-3.6-3.6v-40c0-2,1.6-3.6,3.6-3.6h13.7c0.2,0,0.3,0,0.5,0v-2.9
		c0-0.9,0.7-1.6,1.6-1.6l0,0c0.9,0,1.6,0.7,1.6,1.6v5c0,0.2,0,0.4-0.1,0.6c0.1,0.3,0.1,0.6,0.1,1v40C49.2,64.8,47.5,66.4,45.5,66.4
		L45.5,66.4z M34.7,24.3h7.9c2.5,0,4.6,2.1,4.6,4.6v13.2c0,2.5-2.1,4.6-4.6,4.6h-7.9c-2.5,0-4.6-2.1-4.6-4.6V28.9
		C30.1,26.4,32.2,24.3,34.7,24.3L34.7,24.3z"/>
	<path class="st2" d="M52.4,25.2l8.7,0c3.2,0.4,4.6,2.8,4.5,6.2c-0.2,3.5-2.2,5.2-5.5,5.5l-3.2-0.1l0.1,9.6h-4.6V25.2L52.4,25.2z
		 M57.1,27.4c2.2-0.3,3.8,0.3,3.9,3.7c-0.1,3-1.7,3.8-3.9,3.6V27.4L57.1,27.4z"/>
	<path class="st2" d="M73.7,24.9l5.5,0l0,2.4l-4.3,0c-2.5,0.5-1.9,3.1-2.1,5l5.8-0.1l0,2.9L73,35l0,7c0.2,1.8,1.2,2.7,2.8,2.9l3.1,0
		l0.9,0l0,2.2l-1,0l-5.9-0.1c-2-0.1-3.7-1.1-4.4-4.2l-0.1-13.7C68.5,26.4,70.3,25.1,73.7,24.9L73.7,24.9z"/>
	<path class="st2" d="M81.3,30.9c-0.3-4.6,2.2-5.6,5.3-6c3.6-0.2,5.9,1.3,6.4,5.2l-4.3,0c-0.3-1.9-1.8-2.7-3.2-1.8
		c-2,2.4,4.2,6.7,6,8.3c3.2,2.5,2.7,9.5-2.3,10.8l-3,0.1c-3.1,0.1-4.9-1.9-5.4-5.4l4.3-0.1c0.2,1.5,0.9,2.5,2.3,2.4
		c2.2-0.4,2.7-2.3,1.2-4.7C85.4,37,81.6,34.4,81.3,30.9L81.3,30.9z"/>
	<path class="st2" d="M5.3,24.2h4.5l0,1.4c2.7-1.2,4.8-2,7-0.1c3.9-1.8,6.8-1.6,8.3,1.8l0.2,19.1h-4.6V28.2
		c-0.3-1.6-1.6-1.8-3.1-1.7v19.9H13V28.2c-0.3-1.6-1.6-1.8-3.1-1.7v19.9H5.3V24.2L5.3,24.2z"/>
	<path class="st2" d="M95.5,47h4.7V35.3h3.9V47h4.6V30.2c-0.1-3.4-2.7-5.5-6.4-5.5c-4.2,0-6.6,2-6.8,5.4V47L95.5,47z M100.2,29
		c0.2-1.2,0.6-1.8,1.9-1.9c1.4,0,1.9,0.8,2,2.1v3.4h-3.9V29L100.2,29z"/>
	<g>
		<path class="st3" d="M33.8,33.3c0.8,1.8,1.9,2.7,3.1,2.7c-2,1.5-4.2,2.4-6.5,3c-1.4-0.1-2.8-0.5-4.1-0.8
			C29.7,37.5,32.2,35.9,33.8,33.3L33.8,33.3z"/>
		<path class="st4" d="M30.5,39L30.5,39c-1.5-0.1-3-0.5-4.1-0.8l0,0c1.7-0.3,3.1-0.9,4.4-1.7c1.2-0.8,2.3-1.9,3.1-3.2l0,0l0,0
			c0.4,0.9,0.8,1.6,1.4,2c0.5,0.4,1.1,0.7,1.8,0.7l0,0C35.1,37.4,33,38.4,30.5,39L30.5,39z M26.4,38.2c1.2,0.3,2.6,0.7,4,0.8
			c2.5-0.6,4.6-1.6,6.4-3c-0.6,0-1.2-0.3-1.7-0.7c-0.5-0.4-1-1.1-1.4-2c-0.8,1.3-1.8,2.4-3.1,3.2C29.5,37.3,28.1,37.9,26.4,38.2z"/>
	</g>
	<g>
		<path class="st5" d="M42.6,28.5l9.5,4.8c-4.8,6.3-12.9,6.5-21.6,5.7C36.2,37.6,40.2,34,42.6,28.5L42.6,28.5z"/>
		<path class="st4" d="M36.8,39.4C36.8,39.4,36.8,39.4,36.8,39.4c-1.8,0-3.9-0.1-6.4-0.3l0,0c2.9-0.7,5.3-1.9,7.4-3.7
			c2-1.7,3.6-4,4.8-6.8l0,0l9.5,4.8l0,0c-2.2,2.9-5.3,4.7-9.4,5.5C41,39.2,39,39.4,36.8,39.4z M30.6,39c2.4,0.2,4.4,0.3,6.2,0.3
			c0,0,0,0,0,0c2.2,0,4.1-0.2,5.9-0.5c4.1-0.8,7.1-2.6,9.3-5.5l-9.4-4.8c-1.2,2.7-2.8,5-4.8,6.7C35.8,37,33.4,38.3,30.6,39z"/>
	</g>
</g>
</svg>
